<svg width="51" height="51" viewBox="0 0 51 51" fill="none" xmlns="http://www.w3.org/2000/svg">
<path d="M20.8964 0.879272L12.5214 13.3793H0.0213623V38.3793H12.5214L20.8964 50.8793H25.0214V0.879272H20.8964ZM31.2714 7.12927V13.3793C32.3339 13.3793 33.3964 13.5043 34.3964 13.7543C39.7714 15.1293 43.7714 20.0043 43.7714 25.8793C43.7714 31.7543 39.8339 36.6293 34.3964 38.0043C33.3964 38.2543 32.3339 38.3793 31.2714 38.3793V44.6293C32.8339 44.6293 34.2714 44.3793 35.7714 44.0668H35.9589C44.0839 42.0043 50.0214 34.6293 50.0214 25.8793C50.0214 17.1293 44.0839 9.75427 35.9589 7.69177C34.5214 7.31677 32.8964 7.12927 31.2714 7.12927ZM31.2714 19.6293V32.1293C31.8339 32.1293 32.3964 32.0668 32.8339 31.9418C35.5214 31.2543 37.5214 28.7543 37.5214 25.8793C37.5214 23.0043 35.5839 20.5043 32.8339 19.8168C32.3339 19.6918 31.7714 19.6293 31.2714 19.6293Z" fill="black"/>
</svg>
